Coordinates
version=1
nRows=15
nColumns=46
inDegrees=yes

Units are S.I. units (second, meters, Newtons, ...)
Angles are in degrees.

endheader
time	pelvis_tilt	pelvis_list	pelvis_rotation	pelvis_tx	pelvis_ty	pelvis_tz	bb_angle	bb_tx	bb_ty	bb_tz	hip_flexion_r	hip_adduction_r	hip_rotation_r	knee_angle_r	knee_angle_r_beta	ankle_angle_r	subtalar_angle_r	mtp_angle_r	crank_angle_r	hip_flexion_l	hip_adduction_l	hip_rotation_l	knee_angle_l	knee_angle_l_beta	ankle_angle_l	subtalar_angle_l	mtp_angle_l	crank_angle_l	lumbar_extension	lumbar_bending	lumbar_rotation	arm_flex_r	arm_add_r	arm_rot_r	elbow_flex_r	pro_sup_r	wrist_flex_r	wrist_dev_r	arm_flex_l	arm_add_l	arm_rot_l	elbow_flex_l	pro_sup_l	wrist_flex_l	wrist_dev_l
      5.00000000	    -24.15876990	     -7.51049468	     -0.90152982	      0.41296893	      1.19540930	     -0.22127874	      0.00000000	      0.50000000	      0.00000000	      0.25000000	     78.95266415	     -1.44754902	     -9.72086105	    105.77009766	      1.84603645	    -18.80410877	    -13.75202737	      0.00000000	      0.00000000	     23.92943244	    -13.87054369	     -7.26049662	     17.04031394	      0.29740958	    -14.18352986	      2.34033995	      0.00000000	      0.00000000	    -59.68772293	      8.28154737	      0.97565577	     77.68489146	     -3.30769605	     50.43406999	     44.35715424	     57.08491842	      0.00000000	      0.00000000	     51.36050482	    -42.43664260	     25.81101127	     80.96364280	     55.30520287	      0.00000000	      0.00000000
      5.00500000	    -24.18044496	     -7.49042095	     -1.25146580	      0.41313243	      1.19677313	     -0.22113884	      0.00000000	      0.50000000	      0.00000000	      0.25000000	     79.71680186	     -1.05064835	     -9.59053172	    105.42710560	      1.84005011	    -18.76046656	    -13.72105555	      0.00000000	      0.00000000	     23.51321040	    -14.05432823	     -7.93631906	     17.47455059	      0.30498844	    -14.58870225	      2.12741257	      0.00000000	      0.00000000	    -59.88534675	      8.44304391	      1.32095828	     77.95779233	     -3.21698184	     50.46051687	     44.50440850	     57.09809357	      0.00000000	      0.00000000	     51.39014643	    -42.56290397	     25.88859550	     80.69050878	     55.27695377	      0.00000000	      0.00000000
      5.01000000	    -24.25568439	     -7.53295117	     -1.63648071	      0.41310427	      1.19805342	     -0.22053616	      0.00000000	      0.50000000	      0.00000000	      0.25000000	     80.43533201	     -0.54384281	     -9.54389062	    104.92240520	      1.83124143	    -18.72081962	    -13.74176136	      0.00000000	      0.00000000	     23.46653123	    -14.46327442	     -8.84843095	     18.54844278	      0.32373140	    -14.44120725	      2.42397626	      0.00000000	      0.00000000	    -59.98287925	      8.53934220	      1.84018094	     78.22695544	     -3.33268700	     50.85698686	     44.55763385	     57.13521873	      0.00000000	      0.00000000	     51.79806518	    -42.54153065	     26.50369453	     80.02967331	     55.25827598	      0.00000000	      0.00000000
      5.01500000	    -24.29073262	     -7.59930374	     -1.99738394	      0.41308656	      1.19970332	     -0.22019643	      0.00000000	      0.50000000	      0.00000000	      0.25000000	     80.90446099	     -0.01196717	     -9.48992338	    104.25296867	      1.81955756	    -18.40652049	    -13.66574018	      0.00000000	      0.00000000	     23.47952868	    -14.83471108	     -9.39890401	     19.76817300	      0.34501971	    -14.42811053	      2.19348165	      0.00000000	      0.00000000	    -60.18335858	      8.62035131	      2.64874979	     78.73955422	     -4.01375727	     51.75877161	     44.85882714	     57.22884582	      0.00000000	      0.00000000	     52.97094335	    -42.11958051	     27.85020053	     78.78801960	     55.26863086	      0.00000000	      0.00000000
      5.02000000	    -24.43699046	     -7.64832237	     -2.17035057	      0.41284685	      1.20126208	     -0.21992403	      0.00000000	      0.50000000	      0.00000000	      0.25000000	     81.36003175	      0.46055006	     -9.36276398	    103.45679010	      1.80566162	    -17.86755260	    -13.43594642	      0.00000000	      0.00000000	     23.85680945	    -15.09405869	     -9.36238189	     21.28311132	      0.37146037	    -14.38269283	      1.64581680	      0.00000000	      0.00000000	    -60.36556930	      8.87007887	      2.95016825	     79.01641751	     -3.86625341	     51.75678655	     44.99814857	     57.22623251	      0.00000000	      0.00000000	     53.08938499	    -42.28231904	     27.97874278	     78.55813939	     55.26177627	      0.00000000	      0.00000000
      5.02500000	    -24.57643513	     -7.63366608	     -2.41211302	      0.41268500	      1.20291010	     -0.21950614	      0.00000000	      0.50000000	      0.00000000	      0.25000000	     81.68568164	      0.96858701	     -9.17055403	    102.53140876	      1.78951067	    -17.30145405	    -13.25756871	      0.00000000	      0.00000000	     24.31710135	    -15.33478220	     -9.34153795	     22.98622749	      0.40118535	    -14.38140968	      0.99490386	      0.00000000	      0.00000000	    -60.57299261	      8.99626364	      3.23116745	     79.34170874	     -3.75571841	     51.74191954	     45.11107473	     57.22425999	      0.00000000	      0.00000000	     53.28218389	    -42.39469435	     28.05027629	     78.38930313	     55.25140492	      0.00000000	      0.00000000
      5.03000000	    -24.48981658	     -7.61236407	     -2.31428411	      0.41198771	      1.20489988	     -0.21890674	      0.00000000	      0.50000000	      0.00000000	      0.25000000	     81.68891540	      1.29691009	     -8.96912956	    101.54069303	      1.77221942	    -16.59739632	    -13.01929584	      0.00000000	      0.00000000	     24.89088667	    -15.49807719	     -8.84375759	     25.03569059	      0.43695523	    -14.37899290	      0.31809401	      0.00000000	      0.00000000	    -61.04230816	      9.22480011	      3.39101405	     79.75024843	     -3.62527001	     51.67696250	     45.23184230	     57.21299862	      0.00000000	      0.00000000	     53.74122603	    -42.65286446	     28.32160843	     78.22127749	     55.26295192	      0.00000000	      0.00000000
      5.03500000	    -24.88323988	     -7.68238549	     -2.47801501	      0.41161000	      1.20627053	     -0.21848634	      0.00000000	      0.50000000	      0.00000000	      0.25000000	     82.00449121	      1.69925878	     -8.92386084	    100.33669713	      1.75120573	    -15.92055208	    -12.82385468	      0.00000000	      0.00000000	     26.02255234	    -15.81918325	     -8.37394933	     27.26026906	      0.47578145	    -14.48444554	     -0.42676330	      0.00000000	      0.00000000	    -61.07463109	      9.42429113	      3.76008969	     79.95283722	     -3.60980989	     51.58148247	     45.44907361	     57.21160518	      0.00000000	      0.00000000	     53.99949889	    -42.76081799	     28.60299418	     78.10139057	     55.29370625	      0.00000000	      0.00000000
      5.04000000	    -25.04566236	     -7.65138906	     -2.50476163	      0.41129882	      1.20793047	     -0.21802135	      0.00000000	      0.50000000	      0.00000000	      0.25000000	     81.95337663	      2.07700539	     -8.71404514	     99.06313734	      1.72897791	    -15.11864064	    -12.58493709	      0.00000000	      0.00000000	     27.02581208	    -15.99550889	     -7.74582668	     29.59245294	      0.51648574	    -14.66194853	     -1.16143404	      0.00000000	      0.00000000	    -61.36080912	      9.57271672	      3.97407422	     80.21159583	     -3.56010616	     51.38396535	     45.74561854	     57.21184562	      0.00000000	      0.00000000	     54.27672354	    -42.89727215	     28.66863555	     78.05721954	     55.30468613	      0.00000000	      0.00000000
      5.04500000	    -25.15922954	     -7.51500424	     -2.51731625	      0.41096188	      1.20965719	     -0.21752786	      0.00000000	      0.50000000	      0.00000000	      0.25000000	     81.74418317	      2.39102722	     -8.43473614	     97.68628698	      1.70494734	    -14.33433926	    -12.36881039	      0.00000000	      0.00000000	     28.05638397	    -16.04533149	     -7.09358030	     31.99617396	      0.55843858	    -14.98924829	     -1.94464163	      0.00000000	      0.00000000	    -61.73274873	      9.61311057	      4.08099238	     80.53234284	     -3.41483993	     51.11843047	     45.99232136	     57.19839117	      0.00000000	      0.00000000	     54.63050166	    -42.99598790	     28.57513233	     78.08415777	     55.30203428	      0.00000000	      0.00000000
      5.05000000	    -25.33965812	     -7.39864069	     -2.45583505	      0.41071560	      1.21118735	     -0.21721782	      0.00000000	      0.50000000	      0.00000000	      0.25000000	     81.45810960	      2.57439105	     -8.22338860	     96.18485732	      1.67874245	    -13.51850439	    -12.17891379	      0.00000000	      0.00000000	     29.29606486	    -16.07081782	     -6.33963971	     34.54923362	      0.60299788	    -15.38705893	     -2.66795774	      0.00000000	      0.00000000	    -62.03101931	      9.75752002	      4.15653231	     80.72317908	     -3.37300182	     50.79224002	     46.35653764	     57.19648376	      0.00000000	      0.00000000	     54.82420851	    -43.10160357	     28.45092905	     78.19991201	     55.31319626	      0.00000000	      0.00000000
      5.05500000	    -25.54361534	     -7.30081054	     -2.27744231	      0.41038688	      1.21256558	     -0.21702823	      0.00000000	      0.50000000	      0.00000000	      0.25000000	     81.07113557	      2.67513865	     -8.03525263	     94.58972573	      1.65090215	    -12.68129457	    -12.02781101	      0.00000000	      0.00000000	     30.70585252	    -16.05463714	     -5.38285293	     37.21083634	      0.64945161	    -15.84318692	     -3.13520752	      0.00000000	      0.00000000	    -62.29510915	      9.95108282	      4.19395847	     80.76057866	     -3.41999706	     50.25431886	     46.98105583	     57.20430108	      0.00000000	      0.00000000	     54.84517210	    -43.15360629	     28.23117693	     78.49679035	     55.34946770	      0.00000000	      0.00000000
      5.06000000	    -25.70508294	     -7.09919119	     -2.16239603	      0.41026158	      1.21401090	     -0.21681030	      0.00000000	      0.50000000	      0.00000000	      0.25000000	     80.51922550	      2.83889023	     -7.70295251	     92.87914551	      1.62104690	    -11.83709827	    -11.88599188	      0.00000000	      0.00000000	     32.03027666	    -15.94405991	     -4.55651739	     39.83292663	      0.69521572	    -16.31489169	     -3.53047080	      0.00000000	      0.00000000	    -62.63430154	     10.00864135	      4.13502147	     80.69682449	     -3.51074611	     49.67191507	     47.87342497	     57.24770888	      0.00000000	      0.00000000	     54.80056182	    -43.17909940	     27.71979169	     78.94938784	     55.38049538	      0.00000000	      0.00000000
      5.06500000	    -25.79812623	     -6.75796295	     -2.09623277	      0.41038675	      1.21550211	     -0.21639810	      0.00000000	      0.50000000	      0.00000000	      0.25000000	     79.77848912	      2.98633118	     -7.27026397	     91.09243183	      1.58986286	    -10.99761668	    -11.91144233	      0.00000000	      0.00000000	     33.22333699	    -15.73897002	     -3.93051408	     42.40171459	      0.74004953	    -16.77714506	     -3.80674214	      0.00000000	      0.00000000	    -63.02104080	      9.88394345	      3.87124910	     80.79638649	     -3.57779121	     49.12278220	     48.63745795	     57.27417826	      0.00000000	      0.00000000	     54.86468122	    -43.07178099	     27.38723074	     79.45762356	     55.42696840	      0.00000000	      0.00000000
      5.07000000	    -25.92336533	     -6.36797318	     -1.98504095	      0.41048440	      1.21672905	     -0.21594930	      0.00000000	      0.50000000	      0.00000000	      0.25000000	     78.96295387	      2.99543216	     -6.88741481	     89.22066588	      1.55719438	    -10.11134117	    -11.87918445	      0.00000000	      0.00000000	     34.51316575	    -15.46737264	     -3.29085111	     45.02816165	      0.78588968	    -17.18646679	     -3.87933175	      0.00000000	      0.00000000	    -63.47086897	      9.67067640	      3.56125833	     80.07307293	     -3.81027059	     47.18337764	     50.99187084	     57.34093152	      0.00000000	      0.00000000	     54.16369749	    -42.96622413	     25.75279412	     80.77690758	     55.49005395	      0.00000000	      0.00000000
